<mxfile host="app.diagrams.net" modified="2024-06-12T19:15:59.863Z" agent="Mozilla/5.0 (Windows NT 10.0; Win64; x64) AppleWebKit/537.36 (KHTML, like Gecko) Chrome/125.0.0.0 Safari/537.36" etag="frsQISlTOHcday-S7nK3" version="24.5.3" type="device">
  <diagram name="Page-1" id="3fGj7wgwwwRA7Grm8IMo">
    <mxGraphModel dx="956" dy="1684" grid="1" gridSize="10" guides="1" tooltips="1" connect="1" arrows="1" fold="1" page="1" pageScale="1" pageWidth="827" pageHeight="1169" math="0" shadow="0">
      <root>
        <mxCell id="0" />
        <mxCell id="1" parent="0" />
        <mxCell id="iroVQ7eDCz7pQ2C9XjWJ-10" style="edgeStyle=orthogonalEdgeStyle;rounded=0;orthogonalLoop=1;jettySize=auto;html=1;" edge="1" parent="1" source="iroVQ7eDCz7pQ2C9XjWJ-1">
          <mxGeometry relative="1" as="geometry">
            <mxPoint x="140" y="220" as="targetPoint" />
          </mxGeometry>
        </mxCell>
        <mxCell id="iroVQ7eDCz7pQ2C9XjWJ-1" value="" style="sketch=0;points=[[0,0,0],[0.25,0,0],[0.5,0,0],[0.75,0,0],[1,0,0],[0,1,0],[0.25,1,0],[0.5,1,0],[0.75,1,0],[1,1,0],[0,0.25,0],[0,0.5,0],[0,0.75,0],[1,0.25,0],[1,0.5,0],[1,0.75,0]];outlineConnect=0;fontColor=#232F3E;fillColor=#8C4FFF;strokeColor=#ffffff;dashed=0;verticalLabelPosition=bottom;verticalAlign=top;align=center;html=1;fontSize=12;fontStyle=0;aspect=fixed;shape=mxgraph.aws4.resourceIcon;resIcon=mxgraph.aws4.cloudfront;" vertex="1" parent="1">
          <mxGeometry x="200" y="70" width="50" height="50" as="geometry" />
        </mxCell>
        <mxCell id="iroVQ7eDCz7pQ2C9XjWJ-2" value="" style="sketch=0;points=[[0,0,0],[0.25,0,0],[0.5,0,0],[0.75,0,0],[1,0,0],[0,1,0],[0.25,1,0],[0.5,1,0],[0.75,1,0],[1,1,0],[0,0.25,0],[0,0.5,0],[0,0.75,0],[1,0.25,0],[1,0.5,0],[1,0.75,0]];outlineConnect=0;fontColor=#232F3E;fillColor=#7AA116;strokeColor=#ffffff;dashed=0;verticalLabelPosition=bottom;verticalAlign=top;align=center;html=1;fontSize=12;fontStyle=0;aspect=fixed;shape=mxgraph.aws4.resourceIcon;resIcon=mxgraph.aws4.s3;" vertex="1" parent="1">
          <mxGeometry x="350" y="70" width="50" height="50" as="geometry" />
        </mxCell>
        <mxCell id="iroVQ7eDCz7pQ2C9XjWJ-3" value="" style="sketch=0;points=[[0,0,0],[0.25,0,0],[0.5,0,0],[0.75,0,0],[1,0,0],[0,1,0],[0.25,1,0],[0.5,1,0],[0.75,1,0],[1,1,0],[0,0.25,0],[0,0.5,0],[0,0.75,0],[1,0.25,0],[1,0.5,0],[1,0.75,0]];outlineConnect=0;fontColor=#232F3E;fillColor=#8C4FFF;strokeColor=#ffffff;dashed=0;verticalLabelPosition=bottom;verticalAlign=top;align=center;html=1;fontSize=12;fontStyle=0;aspect=fixed;shape=mxgraph.aws4.resourceIcon;resIcon=mxgraph.aws4.api_gateway;" vertex="1" parent="1">
          <mxGeometry x="350" y="230" width="50" height="50" as="geometry" />
        </mxCell>
        <mxCell id="iroVQ7eDCz7pQ2C9XjWJ-5" value="" style="sketch=0;points=[[0,0,0],[0.25,0,0],[0.5,0,0],[0.75,0,0],[1,0,0],[0,1,0],[0.25,1,0],[0.5,1,0],[0.75,1,0],[1,1,0],[0,0.25,0],[0,0.5,0],[0,0.75,0],[1,0.25,0],[1,0.5,0],[1,0.75,0]];outlineConnect=0;fontColor=#232F3E;fillColor=#ED7100;strokeColor=#ffffff;dashed=0;verticalLabelPosition=bottom;verticalAlign=top;align=center;html=1;fontSize=12;fontStyle=0;aspect=fixed;shape=mxgraph.aws4.resourceIcon;resIcon=mxgraph.aws4.lambda;" vertex="1" parent="1">
          <mxGeometry x="470" y="230" width="50" height="50" as="geometry" />
        </mxCell>
        <mxCell id="iroVQ7eDCz7pQ2C9XjWJ-6" value="" style="sketch=0;points=[[0,0,0],[0.25,0,0],[0.5,0,0],[0.75,0,0],[1,0,0],[0,1,0],[0.25,1,0],[0.5,1,0],[0.75,1,0],[1,1,0],[0,0.25,0],[0,0.5,0],[0,0.75,0],[1,0.25,0],[1,0.5,0],[1,0.75,0]];outlineConnect=0;fontColor=#232F3E;fillColor=#7AA116;strokeColor=#ffffff;dashed=0;verticalLabelPosition=bottom;verticalAlign=top;align=center;html=1;fontSize=12;fontStyle=0;aspect=fixed;shape=mxgraph.aws4.resourceIcon;resIcon=mxgraph.aws4.s3;" vertex="1" parent="1">
          <mxGeometry x="590" y="390" width="50" height="50" as="geometry" />
        </mxCell>
        <mxCell id="iroVQ7eDCz7pQ2C9XjWJ-7" value="" style="verticalLabelPosition=bottom;html=1;verticalAlign=top;align=center;strokeColor=none;fillColor=#00BEF2;shape=mxgraph.azure.user;" vertex="1" parent="1">
          <mxGeometry x="110" y="230" width="50" height="50" as="geometry" />
        </mxCell>
        <mxCell id="iroVQ7eDCz7pQ2C9XjWJ-12" style="edgeStyle=orthogonalEdgeStyle;rounded=0;orthogonalLoop=1;jettySize=auto;html=1;entryX=0;entryY=0.5;entryDx=0;entryDy=0;entryPerimeter=0;" edge="1" parent="1" source="iroVQ7eDCz7pQ2C9XjWJ-7" target="iroVQ7eDCz7pQ2C9XjWJ-3">
          <mxGeometry relative="1" as="geometry" />
        </mxCell>
        <mxCell id="iroVQ7eDCz7pQ2C9XjWJ-13" style="edgeStyle=orthogonalEdgeStyle;rounded=0;orthogonalLoop=1;jettySize=auto;html=1;exitX=0;exitY=0.75;exitDx=0;exitDy=0;exitPerimeter=0;entryX=1;entryY=0.753;entryDx=0;entryDy=0;entryPerimeter=0;" edge="1" parent="1" source="iroVQ7eDCz7pQ2C9XjWJ-3" target="iroVQ7eDCz7pQ2C9XjWJ-7">
          <mxGeometry relative="1" as="geometry" />
        </mxCell>
        <mxCell id="iroVQ7eDCz7pQ2C9XjWJ-14" style="edgeStyle=orthogonalEdgeStyle;rounded=0;orthogonalLoop=1;jettySize=auto;html=1;entryX=0;entryY=0.5;entryDx=0;entryDy=0;entryPerimeter=0;" edge="1" parent="1" source="iroVQ7eDCz7pQ2C9XjWJ-3" target="iroVQ7eDCz7pQ2C9XjWJ-5">
          <mxGeometry relative="1" as="geometry" />
        </mxCell>
        <mxCell id="iroVQ7eDCz7pQ2C9XjWJ-15" style="edgeStyle=orthogonalEdgeStyle;rounded=0;orthogonalLoop=1;jettySize=auto;html=1;exitX=0;exitY=0.75;exitDx=0;exitDy=0;exitPerimeter=0;entryX=1;entryY=0.75;entryDx=0;entryDy=0;entryPerimeter=0;" edge="1" parent="1" source="iroVQ7eDCz7pQ2C9XjWJ-5" target="iroVQ7eDCz7pQ2C9XjWJ-3">
          <mxGeometry relative="1" as="geometry" />
        </mxCell>
        <mxCell id="iroVQ7eDCz7pQ2C9XjWJ-21" value="" style="sketch=0;points=[[0,0,0],[0.25,0,0],[0.5,0,0],[0.75,0,0],[1,0,0],[0,1,0],[0.25,1,0],[0.5,1,0],[0.75,1,0],[1,1,0],[0,0.25,0],[0,0.5,0],[0,0.75,0],[1,0.25,0],[1,0.5,0],[1,0.75,0]];outlineConnect=0;fontColor=#232F3E;fillColor=#01A88D;strokeColor=#ffffff;dashed=0;verticalLabelPosition=bottom;verticalAlign=top;align=center;html=1;fontSize=12;fontStyle=0;aspect=fixed;shape=mxgraph.aws4.resourceIcon;resIcon=mxgraph.aws4.polly;" vertex="1" parent="1">
          <mxGeometry x="590" y="70" width="50" height="50" as="geometry" />
        </mxCell>
        <mxCell id="iroVQ7eDCz7pQ2C9XjWJ-22" style="edgeStyle=orthogonalEdgeStyle;rounded=0;orthogonalLoop=1;jettySize=auto;html=1;exitX=0.25;exitY=0;exitDx=0;exitDy=0;exitPerimeter=0;entryX=0;entryY=0.25;entryDx=0;entryDy=0;entryPerimeter=0;" edge="1" parent="1" source="iroVQ7eDCz7pQ2C9XjWJ-5" target="iroVQ7eDCz7pQ2C9XjWJ-21">
          <mxGeometry relative="1" as="geometry" />
        </mxCell>
        <mxCell id="iroVQ7eDCz7pQ2C9XjWJ-23" style="edgeStyle=orthogonalEdgeStyle;rounded=0;orthogonalLoop=1;jettySize=auto;html=1;" edge="1" parent="1" source="iroVQ7eDCz7pQ2C9XjWJ-21">
          <mxGeometry relative="1" as="geometry">
            <mxPoint x="500" y="230" as="targetPoint" />
          </mxGeometry>
        </mxCell>
        <mxCell id="iroVQ7eDCz7pQ2C9XjWJ-26" style="edgeStyle=orthogonalEdgeStyle;rounded=0;orthogonalLoop=1;jettySize=auto;html=1;exitX=1;exitY=0.5;exitDx=0;exitDy=0;exitPerimeter=0;entryX=0.75;entryY=0;entryDx=0;entryDy=0;entryPerimeter=0;" edge="1" parent="1" source="iroVQ7eDCz7pQ2C9XjWJ-5" target="iroVQ7eDCz7pQ2C9XjWJ-6">
          <mxGeometry relative="1" as="geometry" />
        </mxCell>
        <mxCell id="iroVQ7eDCz7pQ2C9XjWJ-27" style="edgeStyle=orthogonalEdgeStyle;rounded=0;orthogonalLoop=1;jettySize=auto;html=1;exitX=0.5;exitY=0;exitDx=0;exitDy=0;exitPerimeter=0;entryX=1;entryY=0.75;entryDx=0;entryDy=0;entryPerimeter=0;" edge="1" parent="1" source="iroVQ7eDCz7pQ2C9XjWJ-6" target="iroVQ7eDCz7pQ2C9XjWJ-5">
          <mxGeometry relative="1" as="geometry" />
        </mxCell>
        <mxCell id="iroVQ7eDCz7pQ2C9XjWJ-28" style="edgeStyle=orthogonalEdgeStyle;rounded=0;orthogonalLoop=1;jettySize=auto;html=1;exitX=0;exitY=0.5;exitDx=0;exitDy=0;exitPerimeter=0;entryX=0.5;entryY=1;entryDx=0;entryDy=0;entryPerimeter=0;" edge="1" parent="1" source="iroVQ7eDCz7pQ2C9XjWJ-6" target="iroVQ7eDCz7pQ2C9XjWJ-7">
          <mxGeometry relative="1" as="geometry" />
        </mxCell>
        <mxCell id="iroVQ7eDCz7pQ2C9XjWJ-29" value="" style="edgeStyle=orthogonalEdgeStyle;html=1;endArrow=block;elbow=vertical;startArrow=block;startFill=1;endFill=1;strokeColor=#545B64;rounded=0;" edge="1" parent="1">
          <mxGeometry width="100" relative="1" as="geometry">
            <mxPoint x="250" y="94.67" as="sourcePoint" />
            <mxPoint x="350" y="94.67" as="targetPoint" />
          </mxGeometry>
        </mxCell>
        <mxCell id="iroVQ7eDCz7pQ2C9XjWJ-30" value="Amazon Cloudfront" style="text;html=1;align=center;verticalAlign=middle;whiteSpace=wrap;rounded=0;" vertex="1" parent="1">
          <mxGeometry x="170" y="120" width="110" height="30" as="geometry" />
        </mxCell>
        <mxCell id="iroVQ7eDCz7pQ2C9XjWJ-31" value="Amazon S3" style="text;html=1;align=center;verticalAlign=middle;whiteSpace=wrap;rounded=0;" vertex="1" parent="1">
          <mxGeometry x="337.5" y="120" width="75" height="30" as="geometry" />
        </mxCell>
        <mxCell id="iroVQ7eDCz7pQ2C9XjWJ-32" value="Amazon Polly" style="text;html=1;align=center;verticalAlign=middle;whiteSpace=wrap;rounded=0;" vertex="1" parent="1">
          <mxGeometry x="572.5" y="120" width="85" height="30" as="geometry" />
        </mxCell>
        <mxCell id="iroVQ7eDCz7pQ2C9XjWJ-34" value="Amazon API Gateway" style="text;html=1;align=center;verticalAlign=middle;whiteSpace=wrap;rounded=0;" vertex="1" parent="1">
          <mxGeometry x="320" y="280" width="120" height="30" as="geometry" />
        </mxCell>
        <mxCell id="iroVQ7eDCz7pQ2C9XjWJ-35" value="AWS Lambda" style="text;html=1;align=center;verticalAlign=middle;whiteSpace=wrap;rounded=0;" vertex="1" parent="1">
          <mxGeometry x="452.5" y="280" width="85" height="30" as="geometry" />
        </mxCell>
        <mxCell id="iroVQ7eDCz7pQ2C9XjWJ-36" value="Amazon S3" style="text;html=1;align=center;verticalAlign=middle;whiteSpace=wrap;rounded=0;" vertex="1" parent="1">
          <mxGeometry x="577.5" y="440" width="75" height="30" as="geometry" />
        </mxCell>
        <mxCell id="iroVQ7eDCz7pQ2C9XjWJ-37" value="Client Browser" style="text;html=1;align=center;verticalAlign=middle;whiteSpace=wrap;rounded=0;" vertex="1" parent="1">
          <mxGeometry x="140" y="290" width="90" height="30" as="geometry" />
        </mxCell>
        <mxCell id="iroVQ7eDCz7pQ2C9XjWJ-58" value="&lt;font style=&quot;font-size: 12px;&quot;&gt;Website containing JavaScript to play speech (mp3) and highlight text as it is spoken by Polly&lt;/font&gt;" style="text;html=1;align=center;verticalAlign=middle;whiteSpace=wrap;rounded=0;" vertex="1" parent="1">
          <mxGeometry x="202.5" y="20" width="270" height="30" as="geometry" />
        </mxCell>
        <mxCell id="iroVQ7eDCz7pQ2C9XjWJ-59" value="Create speech (audio) and speechmarks flies" style="text;html=1;align=center;verticalAlign=middle;whiteSpace=wrap;rounded=0;" vertex="1" parent="1">
          <mxGeometry x="547.5" y="20" width="135" height="30" as="geometry" />
        </mxCell>
        <mxCell id="iroVQ7eDCz7pQ2C9XjWJ-60" value="10" style="text;html=1;align=center;verticalAlign=middle;whiteSpace=wrap;rounded=0;" vertex="1" parent="1">
          <mxGeometry x="320" y="410" width="60" height="30" as="geometry" />
        </mxCell>
        <mxCell id="iroVQ7eDCz7pQ2C9XjWJ-61" value="1" style="text;html=1;align=center;verticalAlign=middle;whiteSpace=wrap;rounded=0;" vertex="1" parent="1">
          <mxGeometry x="240" y="70" width="60" height="30" as="geometry" />
        </mxCell>
        <mxCell id="iroVQ7eDCz7pQ2C9XjWJ-62" value="2" style="text;html=1;align=center;verticalAlign=middle;whiteSpace=wrap;rounded=0;" vertex="1" parent="1">
          <mxGeometry x="100" y="190" width="60" height="30" as="geometry" />
        </mxCell>
        <mxCell id="iroVQ7eDCz7pQ2C9XjWJ-63" value="3" style="text;html=1;align=center;verticalAlign=middle;whiteSpace=wrap;rounded=0;" vertex="1" parent="1">
          <mxGeometry x="290" y="230" width="60" height="30" as="geometry" />
        </mxCell>
        <mxCell id="iroVQ7eDCz7pQ2C9XjWJ-64" value="4" style="text;html=1;align=center;verticalAlign=middle;whiteSpace=wrap;rounded=0;" vertex="1" parent="1">
          <mxGeometry x="400" y="230" width="60" height="30" as="geometry" />
        </mxCell>
        <mxCell id="iroVQ7eDCz7pQ2C9XjWJ-65" value="5" style="text;html=1;align=center;verticalAlign=middle;whiteSpace=wrap;rounded=0;" vertex="1" parent="1">
          <mxGeometry x="440" y="160" width="60" height="30" as="geometry" />
        </mxCell>
        <mxCell id="iroVQ7eDCz7pQ2C9XjWJ-66" value="6" style="text;html=1;align=center;verticalAlign=middle;whiteSpace=wrap;rounded=0;" vertex="1" parent="1">
          <mxGeometry x="477.5" y="160" width="60" height="30" as="geometry" />
        </mxCell>
        <mxCell id="iroVQ7eDCz7pQ2C9XjWJ-67" value="6a" style="text;html=1;align=center;verticalAlign=middle;whiteSpace=wrap;rounded=0;" vertex="1" parent="1">
          <mxGeometry x="537.5" y="230" width="60" height="30" as="geometry" />
        </mxCell>
        <mxCell id="iroVQ7eDCz7pQ2C9XjWJ-68" value="7" style="text;html=1;align=center;verticalAlign=middle;whiteSpace=wrap;rounded=0;" vertex="1" parent="1">
          <mxGeometry x="577.5" y="360" width="60" height="30" as="geometry" />
        </mxCell>
        <mxCell id="iroVQ7eDCz7pQ2C9XjWJ-69" value="8" style="text;html=1;align=center;verticalAlign=middle;whiteSpace=wrap;rounded=0;" vertex="1" parent="1">
          <mxGeometry x="410" y="260" width="60" height="30" as="geometry" />
        </mxCell>
        <mxCell id="iroVQ7eDCz7pQ2C9XjWJ-70" value="9" style="text;html=1;align=center;verticalAlign=middle;whiteSpace=wrap;rounded=0;" vertex="1" parent="1">
          <mxGeometry x="160" y="260" width="60" height="30" as="geometry" />
        </mxCell>
        <mxCell id="iroVQ7eDCz7pQ2C9XjWJ-72" value="Amazon Polly Architecture" style="text;strokeColor=none;fillColor=none;html=1;fontSize=24;fontStyle=1;verticalAlign=middle;align=center;" vertex="1" parent="1">
          <mxGeometry x="352.5" y="-40" width="100" height="40" as="geometry" />
        </mxCell>
      </root>
    </mxGraphModel>
  </diagram>
</mxfile>
